<svg xmlns="http://www.w3.org/2000/svg" width="992" height="482" viewBox="0 0 992 482" font-family="ui-sans-serif, -apple-system, 'Segoe UI', Roboto, Helvetica, Arial, sans-serif" role="img" aria-label="Taxonomy coverage grid: 21 tasks across 48 cells"><defs><pattern id="hatch" width="7" height="7" patternUnits="userSpaceOnUse" patternTransform="rotate(45)"><line x1="0" y1="0" x2="0" y2="7" stroke="#4a4a46" stroke-width="2.5"/></pattern></defs><rect width="992" height="482" fill="#1a1a19"/><text x="24" y="38" font-size="19" font-weight="650" fill="#ffffff">Taxonomy coverage &#8212; 21 tasks across 48 cells</text><text x="24" y="62" font-size="13" fill="#c3c2b7">Rows are failure tiers ordered by how observable the failure is. T5&#8211;T6 are the silent ones, where the value is.</text><text x="184.0" y="84" font-size="11.5" fill="#c3c2b7" text-anchor="middle">triton</text><text x="288.0" y="84" font-size="11.5" fill="#c3c2b7" text-anchor="middle">pallas</text><text x="392.0" y="84" font-size="11.5" fill="#c3c2b7" text-anchor="middle">cuda</text><text x="496.0" y="84" font-size="11.5" fill="#c3c2b7" text-anchor="middle">jax</text><text x="600.0" y="84" font-size="11.5" fill="#c3c2b7" text-anchor="middle">pytorch</text><text x="704.0" y="84" font-size="11.5" fill="#c3c2b7" text-anchor="middle">distributed</text><text x="808.0" y="84" font-size="11.5" fill="#c3c2b7" text-anchor="middle">data_pipelin</text><text x="912.0" y="84" font-size="11.5" fill="#c3c2b7" text-anchor="middle">checkpointin</text><text x="116" y="123.0" font-size="13" font-weight="500" fill="#c3c2b7" text-anchor="end">T1</text><rect x="133.5" y="97.5" width="101" height="43" rx="4" fill="#383835"/><rect x="133.5" y="97.5" width="101" height="43" rx="4" fill="url(#hatch)" opacity="0.55"/><rect x="237.5" y="97.5" width="101" height="43" rx="4" fill="#383835"/><rect x="237.5" y="97.5" width="101" height="43" rx="4" fill="url(#hatch)" opacity="0.55"/><rect x="341.5" y="97.5" width="101" height="43" rx="4" fill="#383835"/><rect x="341.5" y="97.5" width="101" height="43" rx="4" fill="url(#hatch)" opacity="0.55"/><rect x="445.5" y="97.5" width="101" height="43" rx="4" fill="#383835"/><rect x="445.5" y="97.5" width="101" height="43" rx="4" fill="url(#hatch)" opacity="0.55"/><rect x="549.5" y="97.5" width="101" height="43" rx="4" fill="#383835"/><rect x="549.5" y="97.5" width="101" height="43" rx="4" fill="url(#hatch)" opacity="0.55"/><rect x="653.5" y="97.5" width="101" height="43" rx="4" fill="#383835"/><rect x="653.5" y="97.5" width="101" height="43" rx="4" fill="url(#hatch)" opacity="0.55"/><rect x="757.5" y="97.5" width="101" height="43" rx="4" fill="#383835"/><rect x="757.5" y="97.5" width="101" height="43" rx="4" fill="url(#hatch)" opacity="0.55"/><rect x="861.5" y="97.5" width="101" height="43" rx="4" fill="#383835"/><rect x="861.5" y="97.5" width="101" height="43" rx="4" fill="url(#hatch)" opacity="0.55"/><text x="116" y="169.0" font-size="13" font-weight="500" fill="#c3c2b7" text-anchor="end">T2</text><rect x="133.5" y="143.5" width="101" height="43" rx="4" fill="#3987e5"/><text x="184.0" y="170.0" font-size="14" font-weight="650" fill="#ffffff" text-anchor="middle">4</text><rect x="237.5" y="143.5" width="101" height="43" rx="4" fill="#383835"/><rect x="237.5" y="143.5" width="101" height="43" rx="4" fill="url(#hatch)" opacity="0.55"/><rect x="341.5" y="143.5" width="101" height="43" rx="4" fill="#12233d"/><rect x="445.5" y="143.5" width="101" height="43" rx="4" fill="#383835"/><rect x="445.5" y="143.5" width="101" height="43" rx="4" fill="url(#hatch)" opacity="0.55"/><rect x="549.5" y="143.5" width="101" height="43" rx="4" fill="#104281"/><text x="600.0" y="170.0" font-size="14" font-weight="650" fill="#ffffff" text-anchor="middle">1</text><rect x="653.5" y="143.5" width="101" height="43" rx="4" fill="#104281"/><text x="704.0" y="170.0" font-size="14" font-weight="650" fill="#ffffff" text-anchor="middle">1</text><rect x="757.5" y="143.5" width="101" height="43" rx="4" fill="#12233d"/><rect x="861.5" y="143.5" width="101" height="43" rx="4" fill="#104281"/><text x="912.0" y="170.0" font-size="14" font-weight="650" fill="#ffffff" text-anchor="middle">1</text><text x="116" y="215.0" font-size="13" font-weight="500" fill="#c3c2b7" text-anchor="end">T3</text><rect x="133.5" y="189.5" width="101" height="43" rx="4" fill="#383835"/><rect x="133.5" y="189.5" width="101" height="43" rx="4" fill="url(#hatch)" opacity="0.55"/><rect x="237.5" y="189.5" width="101" height="43" rx="4" fill="#383835"/><rect x="237.5" y="189.5" width="101" height="43" rx="4" fill="url(#hatch)" opacity="0.55"/><rect x="341.5" y="189.5" width="101" height="43" rx="4" fill="#383835"/><rect x="341.5" y="189.5" width="101" height="43" rx="4" fill="url(#hatch)" opacity="0.55"/><rect x="445.5" y="189.5" width="101" height="43" rx="4" fill="#383835"/><rect x="445.5" y="189.5" width="101" height="43" rx="4" fill="url(#hatch)" opacity="0.55"/><rect x="549.5" y="189.5" width="101" height="43" rx="4" fill="#104281"/><text x="600.0" y="216.0" font-size="14" font-weight="650" fill="#ffffff" text-anchor="middle">1</text><rect x="653.5" y="189.5" width="101" height="43" rx="4" fill="#12233d"/><rect x="757.5" y="189.5" width="101" height="43" rx="4" fill="#383835"/><rect x="757.5" y="189.5" width="101" height="43" rx="4" fill="url(#hatch)" opacity="0.55"/><rect x="861.5" y="189.5" width="101" height="43" rx="4" fill="#383835"/><rect x="861.5" y="189.5" width="101" height="43" rx="4" fill="url(#hatch)" opacity="0.55"/><text x="116" y="261.0" font-size="13" font-weight="500" fill="#c3c2b7" text-anchor="end">T4</text><rect x="133.5" y="235.5" width="101" height="43" rx="4" fill="#383835"/><rect x="133.5" y="235.5" width="101" height="43" rx="4" fill="url(#hatch)" opacity="0.55"/><rect x="237.5" y="235.5" width="101" height="43" rx="4" fill="#383835"/><rect x="237.5" y="235.5" width="101" height="43" rx="4" fill="url(#hatch)" opacity="0.55"/><rect x="341.5" y="235.5" width="101" height="43" rx="4" fill="#383835"/><rect x="341.5" y="235.5" width="101" height="43" rx="4" fill="url(#hatch)" opacity="0.55"/><rect x="445.5" y="235.5" width="101" height="43" rx="4" fill="#383835"/><rect x="445.5" y="235.5" width="101" height="43" rx="4" fill="url(#hatch)" opacity="0.55"/><rect x="549.5" y="235.5" width="101" height="43" rx="4" fill="#12233d"/><rect x="653.5" y="235.5" width="101" height="43" rx="4" fill="#383835"/><rect x="653.5" y="235.5" width="101" height="43" rx="4" fill="url(#hatch)" opacity="0.55"/><rect x="757.5" y="235.5" width="101" height="43" rx="4" fill="#383835"/><rect x="757.5" y="235.5" width="101" height="43" rx="4" fill="url(#hatch)" opacity="0.55"/><rect x="861.5" y="235.5" width="101" height="43" rx="4" fill="#383835"/><rect x="861.5" y="235.5" width="101" height="43" rx="4" fill="url(#hatch)" opacity="0.55"/><text x="116" y="307.0" font-size="13" font-weight="700" fill="#ffffff" text-anchor="end">T5</text><rect x="133.5" y="281.5" width="101" height="43" rx="4" fill="#3987e5"/><text x="184.0" y="308.0" font-size="14" font-weight="650" fill="#ffffff" text-anchor="middle">4</text><rect x="237.5" y="281.5" width="101" height="43" rx="4" fill="#383835"/><rect x="237.5" y="281.5" width="101" height="43" rx="4" fill="url(#hatch)" opacity="0.55"/><rect x="341.5" y="281.5" width="101" height="43" rx="4" fill="#9ec5f4"/><text x="392.0" y="308.0" font-size="14" font-weight="650" fill="#ffffff" text-anchor="middle">6</text><rect x="445.5" y="281.5" width="101" height="43" rx="4" fill="#383835"/><rect x="445.5" y="281.5" width="101" height="43" rx="4" fill="url(#hatch)" opacity="0.55"/><rect x="549.5" y="281.5" width="101" height="43" rx="4" fill="#383835"/><rect x="549.5" y="281.5" width="101" height="43" rx="4" fill="url(#hatch)" opacity="0.55"/><rect x="653.5" y="281.5" width="101" height="43" rx="4" fill="#383835"/><rect x="653.5" y="281.5" width="101" height="43" rx="4" fill="url(#hatch)" opacity="0.55"/><rect x="757.5" y="281.5" width="101" height="43" rx="4" fill="#383835"/><rect x="757.5" y="281.5" width="101" height="43" rx="4" fill="url(#hatch)" opacity="0.55"/><rect x="861.5" y="281.5" width="101" height="43" rx="4" fill="#12233d"/><text x="116" y="353.0" font-size="13" font-weight="700" fill="#ffffff" text-anchor="end">T6</text><rect x="133.5" y="327.5" width="101" height="43" rx="4" fill="#383835"/><rect x="133.5" y="327.5" width="101" height="43" rx="4" fill="url(#hatch)" opacity="0.55"/><rect x="237.5" y="327.5" width="101" height="43" rx="4" fill="#383835"/><rect x="237.5" y="327.5" width="101" height="43" rx="4" fill="url(#hatch)" opacity="0.55"/><rect x="341.5" y="327.5" width="101" height="43" rx="4" fill="#383835"/><rect x="341.5" y="327.5" width="101" height="43" rx="4" fill="url(#hatch)" opacity="0.55"/><rect x="445.5" y="327.5" width="101" height="43" rx="4" fill="#383835"/><rect x="445.5" y="327.5" width="101" height="43" rx="4" fill="url(#hatch)" opacity="0.55"/><rect x="549.5" y="327.5" width="101" height="43" rx="4" fill="#383835"/><rect x="549.5" y="327.5" width="101" height="43" rx="4" fill="url(#hatch)" opacity="0.55"/><rect x="653.5" y="327.5" width="101" height="43" rx="4" fill="#104281"/><text x="704.0" y="354.0" font-size="14" font-weight="650" fill="#ffffff" text-anchor="middle">1</text><rect x="757.5" y="327.5" width="101" height="43" rx="4" fill="#383835"/><rect x="757.5" y="327.5" width="101" height="43" rx="4" fill="url(#hatch)" opacity="0.55"/><rect x="861.5" y="327.5" width="101" height="43" rx="4" fill="#184f95"/><text x="912.0" y="354.0" font-size="14" font-weight="650" fill="#ffffff" text-anchor="middle">2</text><rect x="132" y="391" width="16" height="16" rx="3" fill="#12233d"/><text x="156" y="404" font-size="12" fill="#c3c2b7">reachable, empty</text><rect x="282" y="391" width="16" height="16" rx="3" fill="#6da7ec"/><text x="306" y="404" font-size="12" fill="#c3c2b7">tasks present</text><rect x="432" y="391" width="16" height="16" rx="3" fill="#383835"/><rect x="432" y="391" width="16" height="16" rx="3" fill="url(#hatch)" opacity="0.55"/><text x="456" y="404" font-size="12" fill="#c3c2b7">unreachable with this seed set</text><text x="24" y="436" font-size="12" fill="#c3c2b7">12 of 48 cells are reachable with this seed set. Hatched cells need a seed in that domain,</text><text x="24" y="454" font-size="12" fill="#c3c2b7">or a mutation class that emits that tier &#8212; not more generation time.</text></svg>